<svg enable-background="new 0 0 58 58" height="512" viewBox="0 0 58 58" width="512" xmlns="http://www.w3.org/2000/svg"><path d="m44.375 1h-10.375-20-11.375c-1.45 0-2.625 1.175-2.625 2.625v50.75c0 1.45 1.175 2.625 2.625 2.625h41.75c1.45 0 2.625-1.175 2.625-2.625v-50.75c0-1.45-1.175-2.625-2.625-2.625z" fill="#bf5a45"/><path d="m34 5h-20-8.987c-.559 0-1.013.454-1.013 1.013v45.973c0 .56.454 1.014 1.013 1.014h36.973c.56 0 1.014-.454 1.014-1.013v-45.974c0-.559-.454-1.013-1.013-1.013z" fill="#f2ecbf"/><path d="m58 50-3 4-3-4v-47.469c0-.845.686-1.531 1.531-1.531h2.938c.845 0 1.531.686 1.531 1.531z" fill="#366db6"/><path d="m54.97 58c-.552 0-1-.447-1-1v-6c0-.553.448-1 1-1s1 .447 1 1v6c0 .553-.448 1-1 1z" fill="#7383bf"/><path d="m58 7h-6v-4.469c0-.845.686-1.531 1.531-1.531h2.938c.845 0 1.531.686 1.531 1.531z" fill="#1f436d"/><path d="m51.97 50 2.116 2.822c.442.589 1.325.589 1.767 0l2.117-2.822v-6h-6z" fill="#1f436d"/><path d="m52 20h6v8h-6z" fill="#1f436d"/><circle cx="24" cy="22" fill="#dd352e" r="10"/><path d="m28.698 20h-2.698v-2.698c0-.719-.583-1.302-1.302-1.302h-1.396c-.719 0-1.302.583-1.302 1.302v2.698h-2.698c-.719 0-1.302.583-1.302 1.302v1.396c0 .719.583 1.302 1.302 1.302h2.698v2.698c0 .719.583 1.302 1.302 1.302h1.396c.719 0 1.302-.583 1.302-1.302v-2.698h2.698c.719 0 1.302-.583 1.302-1.302v-1.396c0-.719-.583-1.302-1.302-1.302z" fill="#fff"/><g fill="#d3cca3"><path d="m33 44h-12c-.552 0-1-.447-1-1s.448-1 1-1h12c.552 0 1 .447 1 1s-.448 1-1 1z"/><path d="m17 44h-9c-.552 0-1-.447-1-1s.448-1 1-1h9c.552 0 1 .447 1 1s-.448 1-1 1z"/><path d="m39 44h-2c-.552 0-1-.447-1-1s.448-1 1-1h2c.552 0 1 .447 1 1s-.448 1-1 1z"/><path d="m26 39h-12c-.552 0-1-.447-1-1s.448-1 1-1h12c.552 0 1 .447 1 1s-.448 1-1 1z"/><path d="m39 39h-9c-.552 0-1-.447-1-1s.448-1 1-1h9c.552 0 1 .447 1 1s-.448 1-1 1z"/><path d="m10 39h-2c-.552 0-1-.447-1-1s.448-1 1-1h2c.552 0 1 .447 1 1s-.448 1-1 1z"/><path d="m26 49h-12c-.552 0-1-.447-1-1s.448-1 1-1h12c.552 0 1 .447 1 1s-.448 1-1 1z"/><path d="m39 49h-9c-.552 0-1-.447-1-1s.448-1 1-1h9c.552 0 1 .447 1 1s-.448 1-1 1z"/><path d="m10 49h-2c-.552 0-1-.447-1-1s.448-1 1-1h2c.552 0 1 .447 1 1s-.448 1-1 1z"/></g><path d="m32.263 8h-16.526c-.959 0-1.737-.778-1.737-1.737v-4.526c0-.959.778-1.737 1.737-1.737h16.526c.959 0 1.737.778 1.737 1.737v4.526c0 .959-.778 1.737-1.737 1.737z" fill="#7383bf"/></svg>