<svg height="512pt" viewBox="-21 0 511 512" width="512pt" xmlns="http://www.w3.org/2000/svg"><path d="m437.34375 502c-14.351562-22.027344-21.988281-47.75-21.988281-74.035156v-297.644532h43.972656v297.644532c0 26.285156-7.636719 52.007812-21.984375 74.035156zm0 0" fill="#fed2a4"/><path d="m415.355469 73h43.972656v57.320312h-43.972656zm0 0" fill="#ff728b"/><path d="m459.328125 63h-43.972656c-5.523438 0-10 4.476562-10 10v354.964844c0 28.296875 8.164062 55.785156 23.609375 79.492187 1.84375 2.832031 4.996094 4.542969 8.378906 4.542969 3.378906 0 6.53125-1.710938 8.378906-4.539062 15.441406-23.710938 23.605469-51.199219 23.605469-79.496094v-354.964844c0-5.523438-4.476563-10-10-10zm-33.972656 20h23.972656v37.320312h-23.972656zm23.972656 344.964844c0 18.644531-4.105469 36.882812-11.984375 53.574218-7.878906-16.691406-11.988281-34.929687-11.988281-53.574218v-287.644532h23.972656zm0 0"/><path d="m107.582031 79.570312h-77.945312c-10.570313 0-19.136719 8.570313-19.136719 19.136719v384.160157c0 10.566406 8.566406 19.132812 19.136719 19.132812h323.414062c10.566407 0 19.132813-8.566406 19.132813-19.132812v-384.160157c0-10.566406-8.566406-19.136719-19.132813-19.136719h-78.136719" fill="#57a4ff"/><path d="m332.183594 412v50h-281.683594v-342.429688h281.683594v186.429688" fill="#d1e7f8"/><path d="m332.183594 369c-.648438 0-1.308594-.070312-1.957032-.199219-.632812-.121093-1.261718-.320312-1.871093-.570312-.601563-.25-1.179688-.550781-1.71875-.921875-.550781-.359375-1.0625-.777344-1.523438-1.238282-.457031-.460937-.878906-.96875-1.25-1.519531-.359375-.539062-.667969-1.121093-.917969-1.730469-.25-.601562-.441406-1.230468-.570312-1.871093s-.191406-1.300781-.191406-1.949219.0625-1.308594.191406-1.949219.320312-1.269531.570312-1.871093c.25-.609376.558594-1.1875.917969-1.726563.371094-.550781.792969-1.0625 1.25-1.523437.460938-.457032.972657-.878907 1.523438-1.238282.539062-.371094 1.117187-.671875 1.71875-.921875.609375-.25 1.238281-.449219 1.871093-.566406 1.289063-.261719 2.617188-.261719 3.910157 0 .636719.117187 1.269531.316406 1.867187.566406.609375.25 1.191406.550781 1.730469.921875.550781.359375 1.0625.78125 1.519531 1.238282.460938.460937.882813.972656 1.242188 1.523437.359375.539063.667968 1.117187.917968 1.726563.25.601562.441407 1.230468.570313 1.871093s.199219 1.300781.199219 1.949219-.070313 1.3125-.199219 1.949219c-.128906.640625-.320313 1.273437-.570313 1.871093-.25.609376-.558593 1.191407-.917968 1.730469-.359375.550781-.78125 1.058594-1.242188 1.519531-.457031.460938-.96875.878907-1.519531 1.238282-.539063.363281-1.121094.671875-1.730469.921875-.597656.25-1.230468.449219-1.867187.570312-.640625.128907-1.300781.199219-1.953125.199219zm0 0"/><path d="m109.84375 64.570312h163v55h-163zm0 0" fill="#ffe477"/><path d="m244.34375 64.570312h-106v-1.570312c0-29.269531 23.726562-53 53-53 29.269531 0 53 23.730469 53 53zm0 0" fill="#fed2a4"/><path d="m353.050781 69.570312h-70.207031v-5c0-5.519531-4.480469-10-10-10h-19.0625c-4.132812-30.765624-30.558594-54.570312-62.4375-54.570312-31.882812 0-58.308594 23.804688-62.441406 54.570312h-19.058594c-5.523438 0-10 4.480469-10 10v5h-70.207031c-16.066407 0-29.136719 13.070313-29.136719 29.136719v384.15625c0 16.066407 13.070312 29.136719 29.136719 29.136719h323.414062c16.0625 0 29.132813-13.070312 29.132813-29.136719v-384.15625c0-16.066406-13.070313-29.136719-29.132813-29.136719zm-161.707031-49.570312c20.824219 0 38.242188 14.882812 42.167969 34.570312h-84.339844c3.929687-19.6875 21.34375-34.570312 42.171875-34.570312zm-71.5 54.570312h143v35h-143zm242.339844 408.292969c0 5.039063-4.097656 9.136719-9.132813 9.136719h-323.414062c-5.039063 0-9.136719-4.097656-9.136719-9.136719v-384.15625c0-5.035156 4.097656-9.136719 9.136719-9.136719h70.207031v20h-49.34375c-5.523438 0-10 4.480469-10 10v342.429688c0 5.523438 4.476562 10 10 10h281.683594c5.523437 0 10-4.476562 10-10v-50c0-5.523438-4.476563-10-10-10-5.523438 0-10 4.476562-10 10v40h-261.683594v-322.429688h261.683594v176.429688c0 5.523438 4.476562 10 10 10 5.523437 0 10-4.476562 10-10v-186.429688c0-5.519531-4.476563-10-10-10h-49.339844v-20h70.207031c5.035157 0 9.132813 4.101563 9.132813 9.136719zm0 0"/><path d="m235.472656 156.277344c-18.496094 0-34.707031 9.511718-44.21875 23.960937-9.511718-14.449219-25.542968-23.960937-44.042968-23.960937-31.007813 0-52.675782 24.3125-52.675782 59.195312 0 43.160156 37.347656 59.5 81.214844 98.082032l15.503906 14.625 24.488282-20.613282c40.164062-35.058594 72.40625-52.28125 72.40625-92.09375 0-34.882812-21.667969-59.195312-52.675782-59.195312zm0 0" fill="#ff728b"/><path d="m191.253906 338.179688c-2.472656 0-4.941406-.914063-6.859375-2.726563l-15.378906-14.503906c-9.972656-8.765625-19.476563-16.261719-28.671875-23.511719-31.179688-24.589844-55.808594-44.015625-55.808594-81.964844 0-19.320312 6.125-36.839844 17.242188-49.328125 11.40625-12.8125 27.539062-19.867187 45.433594-19.867187 16.660156 0 32.390624 6.648437 44.046874 18.238281 11.679688-11.589844 27.46875-18.238281 44.214844-18.238281 17.894532 0 34.027344 7.058594 45.433594 19.867187 11.117188 12.488281 17.242188 30.007813 17.242188 49.328125 0 37.066406-24.019532 56.761719-54.433594 81.691406-6.867188 5.632813-13.96875 11.453126-21.394532 17.9375-.046874.039063-.09375.078126-.136718.113282l-24.488282 20.613281c-1.867187 1.570313-4.15625 2.351563-6.441406 2.351563zm-44.042968-171.902344c-25.523438 0-42.675782 19.769531-42.675782 49.195312 0 28.253906 19.171875 43.371094 48.191406 66.261719 9 7.097656 19.203126 15.144531 29.628907 24.3125.085937.074219.171875.152344.257812.234375l9.019531 8.507812 17.601563-14.816406c7.636719-6.660156 14.835937-12.5625 21.800781-18.273437 28.371094-23.257813 47.113282-38.625 47.113282-66.226563 0-29.421875-17.148438-49.191406-42.675782-49.191406-14.433594 0-27.84375 7.273438-35.867187 19.457031-1.847657 2.808594-4.988281 4.5-8.351563 4.5-3.363281 0-6.5-1.691406-8.351562-4.5-8.023438-12.183593-21.367188-19.460937-35.691406-19.460937zm68.53125 141.289062h.011718zm0 0"/><path d="m228.378906 228.894531h-23.703125v-23.703125h-26.667969v23.703125h-23.703124v26.667969h23.703124v23.703125h26.667969v-23.703125h23.703125zm0 0" fill="#b3d8f4"/><path d="m204.675781 289.265625h-26.667969c-5.523437 0-10-4.476563-10-10v-13.703125h-13.703124c-5.519532 0-10-4.476562-10-10v-26.667969c0-5.523437 4.480468-10 10-10h13.703124v-13.703125c0-5.523437 4.476563-10 10-10h26.667969c5.523438 0 10 4.476563 10 10v13.703125h13.703125c5.523438 0 10 4.476563 10 10v26.667969c0 5.523438-4.476562 10-10 10h-13.703125v13.703125c0 5.519531-4.476562 10-10 10zm-16.667969-20h6.667969v-13.703125c0-5.523438 4.480469-10 10-10h13.703125v-6.667969h-13.703125c-5.519531 0-10-4.480469-10-10v-13.703125h-6.667969v13.703125c0 5.519531-4.476562 10-10 10h-13.703124v6.667969h13.703124c5.523438 0 10 4.476562 10 10zm0 0"/><path d="m281.675781 379h-180.667969c-5.523437 0-10-4.476562-10-10s4.476563-10 10-10h180.667969c5.523438 0 10 4.476562 10 10s-4.476562 10-10 10zm0 0"/><path d="m281.675781 424.667969h-180.667969c-5.523437 0-10-4.476563-10-10 0-5.519531 4.476563-10 10-10h180.667969c5.523438 0 10 4.480469 10 10 0 5.523437-4.476562 10-10 10zm0 0"/></svg>