<svg id="Capa_1" enable-background="new 0 0 510 510" height="512" viewBox="0 0 510 510" width="512" xmlns="http://www.w3.org/2000/svg"><g><path d="m510 82.385v330h-140c-48.34 0-65.24 33.89-66.31 36.14l-3.86 9.09-9.83-.23h-35v-375h255z" fill="#08475e"/><path d="m255 82.385v375h-44.93l-3.76-8.86c-1.07-2.25-17.97-36.14-66.31-36.14h-140v-330z" fill="#0a789b"/><path d="m450 52.385v300h-92.99c-33.44 0-66.4 11.31-92.8 31.84l-9.21 7.16v-311.9c28.66-17.75 61.48-27.1 95.31-27.1z" fill="#dceaec"/><path d="m255 79.485v311.9l-9.21-7.16c-26.4-20.53-59.36-31.84-92.8-31.84h-92.99v-300h99.69c33.83 0 66.65 9.35 95.31 27.1z" fill="#f7f9fa"/><path d="m390 187.385h-30v-30h-30v30h-30v30h30v30h30v-30h30z" fill="#c40048"/><g fill="#00eecf"><path d="m120 157.385h90v30h-90z"/><path d="m120 217.385h60v30h-60z"/></g></g></svg>