<svg id="Capa_1" enable-background="new 0 0 512 512" height="512" viewBox="0 0 512 512" width="512" xmlns="http://www.w3.org/2000/svg"><g><path d="m240.469 163.009h-10.886c-17.149 0-31.052 13.902-31.052 31.052h-75.481c-13.255 0-24-10.745-24-24v-7.249h-5.424c-13.255 0-24-10.745-24-24v-7.062h-7.062c-13.255 0-24-10.745-24-24v-6.984-.078l170.842.078c0 17.112 13.872 30.984 30.984 30.984h.078v31.259z" fill="#f2fbff"/><path d="m153.05 194.059h-30c-13.25 0-24-10.74-24-24v-7.25h-5.42c-13.26 0-24-10.74-24-24v-7.06h-7.07c-13.25 0-24-10.74-24-24v-7.06l30 .01v7.05c0 13.26 10.75 24 24 24h7.07v7.06c0 13.26 10.74 24 24 24h5.42v7.25c0 13.26 10.75 24 24 24z" fill="#dff6fd"/><path d="m240.469 65.696v438.801h31.062v-438.831l-15.531-27.103z" fill="#f2fbff"/><path d="m266.01 56.029-5.54 9.67v438.8h-20v-438.8l15.53-27.14z" fill="#dff6fd"/><circle cx="256" cy="38.563" fill="#fee97d" r="31.062"/><path d="m266 67.989c-3.14 1.06-6.5 1.64-10 1.64-17.16 0-31.06-13.91-31.06-31.07 0-17.15 13.9-31.06 31.06-31.06 3.5 0 6.86.58 10 1.64-12.25 4.17-21.06 15.77-21.06 29.42 0 13.66 8.81 25.26 21.06 29.43z" fill="#fed402"/><path d="m271.531 163.009h10.886c17.149 0 31.052 13.902 31.052 31.052h75.481c13.255 0 24-10.745 24-24v-7.249h5.424c13.255 0 24-10.745 24-24v-7.062h7.062c13.255 0 24-10.745 24-24v-6.984-.078l-170.842.078c0 17.112-13.872 30.984-30.984 30.984h-.078v31.259z" fill="#f2fbff"/><path d="m301.53 131.749v31.26h10.89c17.15 0 31.05 13.9 31.05 31.05h-30c0-17.15-13.9-31.05-31.05-31.05h-10.89v-31.26h.08c8.55 0 16.3-3.47 21.91-9.07 5.6-5.61 9.07-13.36 9.07-21.91h30c0 8.55-3.47 16.3-9.07 21.91-5.61 5.6-13.36 9.07-21.91 9.07z" fill="#dff6fd"/><path d="m333.578 69.781c-17.112 0-30.984 13.872-30.984 30.984s13.872 30.984 30.984 30.984 30.984-13.872 30.984-30.984c0-.026-.002-.052-.002-.078h115.938c13.255 0 24-10.745 24-24v-6.906z" fill="#c8effe"/><path d="m348.58 127.879c-4.44 2.47-9.56 3.87-15 3.87-17.11 0-30.99-13.87-30.99-30.98 0-17.12 13.88-30.99 30.99-30.99h30c-17.11 0-30.99 13.87-30.99 30.99 0 11.67 6.46 21.83 15.99 27.11z" fill="#99e6fc"/><path d="m178.422 69.781c17.112 0 30.984 13.872 30.984 30.984s-13.872 30.984-30.984 30.984-30.984-13.872-30.984-30.984c0-.026.002-.052.002-.078h-115.938c-13.255 0-24-10.745-24-24v-6.906z" fill="#c8effe"/><path d="m61.5 100.689h-30c-13.25 0-24-10.75-24-24v-6.91h30v6.91c0 13.25 10.75 24 24 24z" fill="#99e6fc"/><path d="m264.907 298.759c19.01-6.71 38.66-13.66 53.99-22.68 20.68-12.17 31.15-27.22 31.15-44.74 0-4.8-.787-9.411-2.361-13.843 2.545-3.96 4.027-8.668 4.027-13.725 0-14.043-11.385-25.428-25.428-25.428s-25.428 11.385-25.428 25.428c0 10.157 5.957 18.919 14.566 22.993.167.375.316.74.444 1.114.39 1.14.59 2.29.59 3.46 0 15.08-33.59 26.95-63.23 37.42-19.01 6.72-38.66 13.66-53.99 22.69-20.67 12.17-31.15 27.22-31.15 44.73s10.48 32.56 31.15 44.73c15.33 9.03 34.98 15.97 53.99 22.69 29.64 10.47 63.23 22.34 63.23 37.42 0 5.32-4.33 10.29-11.17 14.94v36.94c23.73-10.97 44.76-26.46 44.76-51.88 0-17.52-10.47-32.57-31.15-44.74-15.33-9.02-34.98-15.97-53.99-22.68-29.63-10.47-63.22-22.34-63.22-37.42 0-15.079 33.59-26.949 63.22-37.419z" fill="#9cf8d2"/><path d="m336.46 441.019c0 5.32-4.33 10.29-11.17 14.94v25.79c-6.1 4.22-12.93 7.89-20 11.15v-36.94c6.84-4.65 11.17-9.62 11.17-14.94 0-15.08-33.59-26.95-63.23-37.42-19.01-6.72-38.66-13.66-53.99-22.69-20.67-12.17-31.15-27.22-31.15-44.73s10.48-32.56 31.15-44.73c15.33-9.03 34.98-15.97 53.99-22.69 29.64-10.47 63.23-22.34 63.23-37.42 0-1.17-.2-2.32-.59-3.46-.13-.37-.28-.74-.45-1.11-8.61-4.08-14.56-12.84-14.56-23 0-14.04 11.38-25.43 25.43-25.43 3.55 0 6.93.73 10 2.05-9.08 3.88-15.43 12.89-15.43 23.38 0 10.16 5.95 18.92 14.56 23 .17.37.32.74.45 1.11.39 1.14.59 2.29.59 3.46 0 15.08-33.59 26.95-63.23 37.42-19.01 6.72-38.66 13.66-53.99 22.69-20.67 12.17-31.15 27.22-31.15 44.73s10.48 32.56 31.15 44.73c15.33 9.03 34.98 15.97 53.99 22.69 29.64 10.47 63.23 22.34 63.23 37.42z" fill="#6cf5c2"/><path d="m247.093 298.759c-19.01-6.71-38.66-13.66-53.99-22.68-20.68-12.17-31.15-27.22-31.15-44.74 0-4.8.787-9.411 2.361-13.843-2.545-3.96-4.027-8.668-4.027-13.725 0-14.043 11.385-25.428 25.428-25.428s25.428 11.385 25.428 25.428c0 10.157-5.957 18.919-14.566 22.993-.167.375-.316.74-.444 1.114-.39 1.14-.59 2.29-.59 3.46 0 15.08 33.59 26.95 63.23 37.42 19.01 6.72 38.66 13.66 53.99 22.69 20.67 12.17 31.15 27.22 31.15 44.73s-10.48 32.56-31.15 44.73c-15.33 9.03-34.98 15.97-53.99 22.69-29.64 10.47-63.23 22.34-63.23 37.42 0 5.32 4.33 10.29 11.17 14.94v36.94c-23.73-10.97-44.76-26.46-44.76-51.88 0-17.52 10.47-32.57 31.15-44.74 15.33-9.02 34.98-15.97 53.99-22.68 29.63-10.47 63.22-22.34 63.22-37.42 0-15.079-33.59-26.949-63.22-37.419z" fill="#9cf8d2"/><path d="m330.31 336.179c0 15.08-33.59 26.95-63.22 37.42-19.01 6.71-38.66 13.66-53.99 22.68-20.68 12.17-31.15 27.22-31.15 44.74 0 17.85 10.37 30.8 24.76 40.73v11.15c-23.73-10.97-44.76-26.46-44.76-51.88 0-17.52 10.47-32.57 31.15-44.74 15.33-9.02 34.98-15.97 53.99-22.68 29.63-10.47 63.22-22.34 63.22-37.42s-33.59-26.95-63.22-37.42c-19.01-6.71-38.66-13.66-53.99-22.68-20.68-12.17-31.15-27.22-31.15-44.74 0-4.8.79-9.41 2.36-13.84-2.54-3.96-4.02-8.67-4.02-13.73 0-14.04 11.38-25.43 25.42-25.43 3.56 0 6.94.73 10.01 2.05-9.08 3.88-15.43 12.89-15.43 23.38 0 5.06 1.48 9.77 4.02 13.73-1.57 4.43-2.36 9.04-2.36 13.84 0 17.52 10.47 32.57 31.15 44.74 15.33 9.02 34.98 15.97 53.99 22.68 29.63 10.47 63.22 22.34 63.22 37.42z" fill="#6cf5c2"/><path d="m504.5 62.279h-71.47c-4.143 0-7.5 3.357-7.5 7.5s3.357 7.5 7.5 7.5h63.959c-.312 8.826-7.589 15.91-16.489 15.91h-115.94c-4.143 0-7.5 3.437-7.5 7.579 0 12.947-10.533 23.48-23.479 23.48-12.952 0-23.49-10.533-23.49-23.48 0-12.952 10.538-23.489 23.49-23.489h66.76c4.143 0 7.5-3.357 7.5-7.5s-3.357-7.5-7.5-7.5h-66.76c-21.224 0-38.49 17.267-38.49 38.489-.86 11.249-6.213 18.674-16.06 22.277v-53.57c9.421-7.037 15.532-18.274 15.532-30.911 0-21.264-17.299-38.563-38.563-38.563s-38.562 17.299-38.562 38.562c0 12.637 6.111 23.874 15.532 30.911v53.576c-9.844-3.606-15.197-11.034-16.06-22.282 0-21.223-17.267-38.489-38.49-38.489h-53.62c-4.143 0-7.5 3.357-7.5 7.5s3.357 7.5 7.5 7.5h53.62c12.952 0 23.49 10.537 23.49 23.489 0 12.947-10.538 23.48-23.49 23.48-12.946 0-23.479-10.533-23.479-23.56 0-4.143-3.357-7.5-7.5-7.5h-115.941c-8.9 0-16.178-7.084-16.489-15.91h77.1c4.143 0 7.5-3.357 7.5-7.5s-3.357-7.5-7.5-7.5h-84.611c-4.143 0-7.5 3.357-7.5 7.5v6.91c0 17.225 13.899 31.257 31.07 31.489.23 17.03 14.032 30.841 31.063 31.068.226 16.472 13.158 29.93 29.418 30.994.098 17.287 14.19 31.318 31.499 31.318h29.823c-.408 5.742.697 11.339 3.315 16.79-8.192 29.838 13.847 54.098 38.402 67.147-22.556 13.533-34 30.579-34 50.683 0 20.103 11.442 37.148 33.999 50.684-20.524 10.907-40.139 29.139-40.139 54.156 0 35.982 36.965 53.072 49.112 58.688 4.535 2.095 10.647-1.241 10.647-6.808v-36.94c0-2.483-1.229-4.807-3.284-6.203-7.317-4.974-7.886-7.945-7.886-8.737 0-8.58 30.147-19.945 29.93-19.856v83.337c0 4.143 3.357 7.5 7.5 7.5h31.061c4.143 0 7.5-3.357 7.5-7.5v-14.72c0-4.143-3.357-7.5-7.5-7.5s-7.5 3.357-7.5 7.5v7.22h-16.06v-81.578c2.686-.977 5.373-1.938 8.033-2.883 2.709.962 5.39 1.923 8.028 2.885v41.667c0 4.143 3.357 7.5 7.5 7.5s7.5-3.357 7.5-7.5v-35.92c4.145 1.693 29.93 11.405 29.93 19.85 0 .792-.568 3.763-7.887 8.738-2.054 1.396-3.283 3.719-3.283 6.202v36.94c0 5.566 6.112 8.903 10.647 6.808 12.147-5.616 49.112-22.706 49.112-58.688 0-24.982-19.626-43.257-40.139-54.156 22.556-13.533 33.999-30.579 33.999-50.684 0-20.102-11.442-37.147-34-50.683 24.651-13.097 46.663-37.051 38.402-67.147 2.618-5.451 3.723-11.048 3.315-16.79h29.823c17.309 0 31.401-14.031 31.499-31.318 16.26-1.064 29.192-14.522 29.418-30.994 17.03-.227 30.833-14.038 31.063-31.068 17.171-.232 31.07-14.264 31.07-31.49v-6.91c0-4.142-3.357-7.5-7.5-7.5zm-195.576 169.473c-1.442 8.759-24.647 17.294-29.894 19.437v-80.68c8.759-.278 18.229 3.156 23.189 10.822-5.49 5.885-8.859 13.774-8.859 22.438 0 11.408 6.004 22.024 15.564 27.983zm-52.924-216.751c12.992 0 23.563 10.57 23.563 23.563s-10.571 23.562-23.563 23.562-23.563-10.57-23.563-23.563 10.571-23.562 23.563-23.562zm8.03 61.278v180.657c-2.639.962-5.32 1.923-8.029 2.885-2.591-.921-5.308-1.891-8.032-2.882v-180.66c4.406 1.345 12.406 1.283 16.061 0zm-45.39 127.49c0-8.664-3.369-16.552-8.859-22.438 4.96-7.666 14.43-11.1 23.189-10.822v80.687c-1.616-.661-28.393-10.643-29.892-19.445 9.559-5.961 15.562-16.576 15.562-27.982zm-95.59-17.21c-9.012 0-16.349-7.266-16.487-16.246h37.937c4.143 0 7.5-3.357 7.5-7.5s-3.357-7.5-7.5-7.5l-50.87-.004c-8.949 0-16.241-7.166-16.478-16.059h47.598c4.143 0 7.5-3.357 7.5-7.5s-3.357-7.5-7.5-7.5l-62.19-.001c-8.949 0-16.241-7.167-16.478-16.06h94.576c3.469 17.679 19.082 31.06 37.762 31.06 12.688 0 23.957-6.172 30.973-15.667 5.691 7.692 13.55 12.675 23.577 14.95v16.978c-13.595.065-27.878 5.656-35.642 17.453-13.863-5.246-31.893.957-39.671 13.597h-34.607zm52.54 149.62c0-21.097 19.009-34.407 35.848-42.791 7.394 3.111 15.076 5.986 22.747 8.743-21.208 8.58-39.995 18.755-39.995 34.048 0 15.289 18.782 25.465 39.989 34.046-7.234 2.602-15.128 5.532-22.749 8.742-16.836-8.384-35.84-21.694-35.84-42.788zm127.221 0c0 2.144-2.542 7.775-23.78 17.225v-34.449c21.238 9.45 23.78 15.079 23.78 17.224zm-38.781 23.32c-2.469.934-5.115 1.912-8.032 2.968-2.465-.892-5.207-1.897-8.029-2.961v-46.653c2.825-1.066 5.566-2.071 8.029-2.961 2.924 1.059 5.569 2.037 8.031 2.968v46.639zm-31.06-6.091c-21.237-9.46-23.779-15.087-23.779-17.229s2.542-7.771 23.779-17.229zm109.58 87.611c0 15.503-9.517 28.275-29.76 39.661v-20.91c7.509-5.89 11.17-12.049 11.17-18.751 0-15.378-18.871-25.886-45.948-36.355 6.927-2.558 15.015-5.69 22.813-9.223 18.621 8.429 41.725 22.096 41.725 45.578zm-6.14-104.84c0 22.256-20.933 35.715-38.644 44.153-19.691 8.515-39.869 15.323-59.927 22.833-29.892 11.191-49.8 21.911-49.8 37.854 0 6.702 3.662 12.863 11.17 18.751v20.91c-20.243-11.386-29.76-24.158-29.76-39.661 0-14.678 9.236-27.555 27.457-38.277 23.944-14.108 51.619-21.02 77.361-31.109 22.615-8.87 43.542-19.304 43.542-35.453 0-16.104-20.812-26.524-43.357-35.378-.005-.002-.011-.004-.016-.006-.057-.022-.113-.045-.17-.067-4.557-1.786-72.457-28.221-77.364-31.111-17.294-10.177-33.124-28.171-25.523-49.61.774-2.185.495-4.605-.757-6.557-1.854-2.888-2.833-6.235-2.833-9.68 0-9.887 8.039-17.93 17.92-17.93 9.887 0 17.93 8.043 17.93 17.93 0 6.897-4.032 13.266-10.271 16.223-4.003 1.897-5.328 7.508-5.328 11.348 0 15.944 19.908 26.664 49.801 37.854 5.262 1.97 47.124 16.782 59.712 22.736 17.292 8.163 38.857 22.555 38.857 44.247zm4.211-116.175c1.279 3.612 1.929 7.426 1.929 11.335 0 23.489-23.117 37.157-41.742 45.587-7.285-3.302-14.989-6.342-22.802-9.23 27.081-10.47 45.955-20.979 45.955-36.357 0-3.84-1.323-9.45-5.329-11.349-6.239-2.955-10.271-9.323-10.271-16.222 0-9.887 8.043-17.93 17.93-17.93 9.881 0 17.92 8.043 17.92 17.93 0 3.444-.979 6.792-2.832 9.681-1.253 1.951-1.532 4.37-.758 6.555zm108.819-95.755-62.19.001c-4.143 0-7.5 3.357-7.5 7.5s3.357 7.5 7.5 7.5h47.598c-.237 8.893-7.529 16.059-16.478 16.059l-50.87.004c-4.143 0-7.5 3.357-7.5 7.5s3.357 7.5 7.5 7.5h37.937c-.138 8.98-7.475 16.246-16.487 16.246h-34.608c-7.778-12.639-25.807-18.843-39.671-13.597-7.763-11.797-22.047-17.389-35.642-17.453v-16.971c10.025-2.28 17.885-7.265 23.578-14.956 7.016 9.495 18.285 15.667 30.972 15.667 18.661 0 34.263-13.353 37.751-31.06h94.587c-.235 8.894-7.528 16.06-16.477 16.06z"/></g></svg>