<svg height="512" viewBox="0 0 512 512" width="512" xmlns="http://www.w3.org/2000/svg"><g id="filled_outline" data-name="filled outline"><path d="m488 248h-80v-48h80l-16 24z" fill="#dc4d41"/><path d="m472 168h-64v-48h64l-16 24z" fill="#ea9d2d"/><path d="m88 24h328a0 0 0 0 1 0 0v464a0 0 0 0 1 0 0h-328a32 32 0 0 1 -32-32v-400a32 32 0 0 1 32-32z" fill="#029532"/><path d="m104 488v-432h-48v400a32 32 0 0 0 32 32z" fill="#027e2a"/><circle cx="256" cy="200" fill="#c3c3c3" r="80"/><circle cx="256" cy="200" fill="#e4e4e2" r="72"/><path d="m88 24h328v64h-328a32 32 0 0 1 -32-32 32 32 0 0 1 32-32z" fill="#dbdbdb"/><g fill="#c3c3c3"><path d="m216 48h200v16h-200z"/><path d="m88 48h32v16h-32z"/><path d="m152 48h40v16h-40z"/></g><path d="m296 184h-24v-24h-32v24h-24v32h24v24h32v-24h24z" fill="#027e2a"/><path d="m288 376h-64a24 24 0 0 0 -24 24v27.6a12.262 12.262 0 0 0 11.775 12.4 12 12 0 0 0 12.225-12v60h64v-60a12 12 0 0 0 12.225 12 12.262 12.262 0 0 0 11.775-12.4v-27.6a24 24 0 0 0 -24-24z" fill="#e4e4e2"/><circle cx="256" cy="344" fill="#e4e4e2" r="32"/><path d="m224 400v28a11.985 11.985 0 0 1 -8 11.31v-39.31z" fill="#c3c3c3"/><path d="m296 400v39.31a11.985 11.985 0 0 1 -8-11.31v-28z" fill="#c3c3c3"/><path d="m248 448h16v40h-16z" fill="#c3c3c3"/><path d="m256 424a7.974 7.974 0 0 1 -5.657-2.343l-8-8a8 8 0 0 1 11.314-11.314l2.343 2.344 2.343-2.344a8 8 0 0 1 11.314 11.314l-8 8a7.974 7.974 0 0 1 -5.657 2.343z" fill="#dc4d41"/><path d="m416 200h16v48h-16z" fill="#b6534f"/><path d="m416 120h16v48h-16z" fill="#d18d28"/><path d="m424 24a8 8 0 0 0 -8-8h-328a40.045 40.045 0 0 0 -40 40v400a40.045 40.045 0 0 0 40 40h328a8 8 0 0 0 8-8v-232h64a8 8 0 0 0 6.656-12.438l-13.041-19.562 13.041-19.562a8 8 0 0 0 -6.656-12.438h-64v-16h48a8 8 0 0 0 6.656-12.438l-13.041-19.562 13.041-19.562a8 8 0 0 0 -6.656-12.438h-48zm-343.129 9.081a23.9 23.9 0 0 1 7.129-1.081h320v16h-192v16h192v16h-320a24 24 0 0 1 -7.129-46.919zm-16.871 422.919v-368.022a39.788 39.788 0 0 0 24 8.022h8v384h-8a24.028 24.028 0 0 1 -24-24zm200 24v-32h-16v32h-16v-80h-16v28a3.983 3.983 0 0 1 -1.2 2.855 3.9 3.9 0 0 1 -2.88 1.145 4.29 4.29 0 0 1 -3.92-4.4v-27.6a16.019 16.019 0 0 1 16-16h64a16.019 16.019 0 0 1 16 16v27.6a4.29 4.29 0 0 1 -3.922 4.4 4.032 4.032 0 0 1 -2.88-1.145 3.983 3.983 0 0 1 -1.198-2.855v-28h-16v80zm-32-136a24 24 0 1 1 24 24 24.028 24.028 0 0 1 -24-24zm176 136h-112v-32.4a19.964 19.964 0 0 0 4.371.393 20.3 20.3 0 0 0 19.629-20.393v-27.6a32.036 32.036 0 0 0 -32-32h-.022a40 40 0 1 0 -63.956 0h-.022a32.036 32.036 0 0 0 -32 32v27.6a20.035 20.035 0 0 0 24 20v32.4h-104v-384h296zm65.052-272-7.708 11.562a8 8 0 0 0 0 8.876l7.708 11.562h-49.052v-32zm-16-80-7.708 11.562a8 8 0 0 0 0 8.876l7.708 11.562h-33.052v-32z"/><path d="m88 48h32v16h-32z"/><path d="m152 48h40v16h-40z"/><path d="m296 176h-16v-16a8 8 0 0 0 -8-8h-32a8 8 0 0 0 -8 8v16h-16a8 8 0 0 0 -8 8v32a8 8 0 0 0 8 8h16v16a8 8 0 0 0 8 8h32a8 8 0 0 0 8-8v-16h16a8 8 0 0 0 8-8v-32a8 8 0 0 0 -8-8zm-8 32h-16a8 8 0 0 0 -8 8v16h-16v-16a8 8 0 0 0 -8-8h-16v-16h16a8 8 0 0 0 8-8v-16h16v16a8 8 0 0 0 8 8h16z"/><path d="m256 112a88 88 0 1 0 88 88 88.1 88.1 0 0 0 -88-88zm0 160a72 72 0 1 1 72-72 72.081 72.081 0 0 1 -72 72z"/><path d="m258.343 402.343-2.343 2.344-2.343-2.344a8 8 0 0 0 -11.314 11.314l8 8a8 8 0 0 0 11.314 0l8-8a8 8 0 0 0 -11.314-11.314z"/></g></svg>