<svg viewBox="-71 0 512 512" xmlns="http://www.w3.org/2000/svg"><path d="m329.808594 255h-22.808594v-242.164062c0-7.078126-6.242188-12.835938-13.917969-12.835938h-244.664062c-7.675781 0-13.917969 5.757812-13.917969 12.835938v244.164062h-19.25c-8.410156 0-15.25 6.839844-15.25 15.25v215.195312c0 13.539063 11.015625 24.554688 24.554688 24.554688h322.289062c12.21875 0 22.15625-9.9375 22.15625-22.15625v-195.652344c0-21.609375-17.582031-39.191406-39.191406-39.191406zm-280.308594-240 242.5.003906v275.996094h-13v-93.683594c0-7.34375-5.976562-13.316406-13.316406-13.316406h-188.367188c-7.34375 0-13.316406 5.976562-13.316406 13.316406v59.683594h-14.5zm268.5 472.445312c0 5.269532-4.285156 9.554688-9.554688 9.554688h-283.890624c-5.269532 0-9.554688-4.285156-9.554688-9.554688v-215.195312c0-.136719.113281-.25.25-.25h67.019531c.082031 0 .160157.042969.207031.113281l20.210938 30.527344c1.390625 2.097656 3.738281 3.359375 6.253906 3.359375h18.558594c4.144531 0 7.5-3.359375 7.5-7.5 0-4.144531-3.355469-7.5-7.5-7.5h-14.527344l-17.988281-27.167969c-2.832031-4.277343-7.585937-6.832031-12.714844-6.832031h-3.269531v-58h185v92h-106.5c-4.144531 0-7.5 3.355469-7.5 7.5 0 4.140625 3.355469 7.5 7.5 7.5h158.199219c1.269531 0 2.300781 1.03125 2.300781 2.300781zm36 2.398438c0 3.945312-3.210938 7.15625-7.15625 7.15625h-15.777344c1.242188-2.9375 1.933594-6.164062 1.933594-9.554688v-179.144531c0-9.539062-7.761719-17.300781-17.300781-17.300781h-8.699219v-21h22.808594c13.339844 0 24.191406 10.851562 24.191406 24.191406zm0 0"/><path d="m162.5 333c-37.21875 0-67.5 30.28125-67.5 67.5s30.28125 67.5 67.5 67.5 67.5-30.28125 67.5-67.5-30.28125-67.5-67.5-67.5zm0 120c-28.949219 0-52.5-23.550781-52.5-52.5s23.550781-52.5 52.5-52.5 52.5 23.550781 52.5 52.5-23.550781 52.5-52.5 52.5zm0 0"/><path d="m190.804688 380h-8.804688v-8.804688c0-6.726562-5.472656-12.195312-12.195312-12.195312h-16.609376c-6.722656 0-12.195312 5.472656-12.195312 12.195312v8.804688h-8.804688c-6.722656 0-12.195312 5.472656-12.195312 12.195312v16.609376c0 6.722656 5.472656 12.195312 12.195312 12.195312h8.804688v8.804688c0 6.722656 5.472656 12.195312 12.195312 12.195312h16.609376c6.726562 0 12.195312-5.472656 12.195312-12.195312v-8.804688h8.804688c6.726562 0 12.195312-5.472656 12.195312-12.195312v-16.609376c0-6.722656-5.472656-12.195312-12.195312-12.195312zm-2.804688 26h-8.804688c-6.726562 0-12.195312 5.472656-12.195312 12.195312v8.804688h-11v-8.804688c0-6.726562-5.472656-12.195312-12.195312-12.195312h-8.804688v-11h8.804688c6.726562 0 12.195312-5.472656 12.195312-12.195312v-8.804688h11v8.804688c0 6.726562 5.472656 12.195312 12.195312 12.195312h8.804688zm0 0"/><path d="m82.882812 156h112.234376c7.65625 0 13.882812-6.226562 13.882812-13.882812v-44.378907c0-4.144531-3.355469-7.5-7.5-7.5s-7.5 3.355469-7.5 7.5v43.261719h-110v-92h110v18.738281c0 4.140625 3.355469 7.5 7.5 7.5s7.5-3.359375 7.5-7.5v-19.855469c0-7.65625-6.226562-13.882812-13.882812-13.882812h-112.234376c-7.65625 0-13.882812 6.226562-13.882812 13.882812v94.234376c0 7.65625 6.226562 13.882812 13.882812 13.882812zm0 0"/><path d="m129.238281 132.5h20.523438c4.90625 0 8.898437-3.992188 8.898437-8.902344v-9.9375h9.9375c4.910156 0 8.902344-3.992187 8.902344-8.898437v-20.523438c0-4.90625-3.992188-8.898437-8.902344-8.898437h-9.9375v-9.9375c0-4.910156-3.992187-8.902344-8.898437-8.902344h-20.523438c-4.90625 0-8.898437 3.992188-8.898437 8.902344v9.9375h-9.9375c-4.910156 0-8.902344 3.992187-8.902344 8.898437v20.523438c0 4.90625 3.992188 8.898437 8.902344 8.898437h9.9375v9.9375c0 4.910156 3.992187 8.902344 8.898437 8.902344zm-12.738281-33.839844v-8.320312h9.9375c4.90625 0 8.902344-3.996094 8.902344-8.902344v-9.9375h8.320312v9.9375c0 4.90625 3.996094 8.902344 8.902344 8.902344h9.9375v8.320312h-9.9375c-4.90625 0-8.902344 3.996094-8.902344 8.902344v9.9375h-8.320312v-9.9375c0-4.90625-3.996094-8.902344-8.902344-8.902344zm0 0"/></svg>