<svg height="512pt" viewBox="-61 0 512 512" width="512pt" xmlns="http://www.w3.org/2000/svg"><path d="m48.953125 7.5h140.648437v96h-140.648437zm0 0" fill="#ff7956"/><path d="m191.644531 134.117188h-144.730469c-8.457031 0-15.3125-6.851563-15.3125-15.308594 0-8.453125 6.855469-15.308594 15.3125-15.308594h144.730469c8.453125 0 15.308594 6.851562 15.308594 15.308594 0 8.457031-6.855469 15.308594-15.308594 15.308594zm0 0" fill="#ff7956"/><path d="m177.328125 177.523438v-43.402344h-116.101563v43.402344c-29.671874 0-53.722656 24.054687-53.722656 53.726562v273.25h223.550782v-273.25c0-29.671875-24.054688-53.726562-53.726563-53.726562zm0 0" fill="#bdfdff"/><path d="m7.5 265.464844h223.554688v169.285156h-223.554688zm0 0" fill="#ff7956"/><path d="m139.019531 360.550781h-11.265625c-29.644531 0-53.675781-24.035156-53.675781-53.679687v-11.261719h11.265625c29.644531 0 53.675781 24.03125 53.675781 53.675781zm0 0" fill="#ff3f62"/><path d="m139.019531 360.550781h9.492188c24.984375 0 45.234375-20.253906 45.234375-45.234375v-9.496094h-9.492188c-24.980468 0-45.234375 20.253907-45.234375 45.234376zm0 0" fill="#ff3f62"/><path d="m347.566406 433.007812h-80.765625c-19.742187 0-35.746093 16.003907-35.746093 35.746094 0 19.742188 16.003906 35.746094 35.746093 35.746094h80.765625c19.742188 0 35.746094-16.003906 35.746094-35.746094 0-19.742187-16.003906-35.746094-35.746094-35.746094zm0 0" fill="#ffb655"/><path d="m349.1875 371.984375-57.109375-57.109375c-13.960937-13.960938-36.59375-13.960938-50.550781 0-13.960938 13.960938-13.960938 36.59375 0 50.554688l57.109375 57.105468c13.957031 13.960938 36.589843 13.960938 50.550781 0 13.960938-13.957031 13.960938-36.589844 0-50.550781zm0 0" fill="#ffb655"/><path d="m119.019531 360.550781h-11.265625c-29.644531 0-53.675781-24.035156-53.675781-53.679687v-11.261719h11.265625c29.644531 0 53.675781 24.03125 53.675781 53.675781zm0 0" fill="#b6e892"/><path d="m119.019531 360.550781h9.492188c24.984375 0 45.234375-20.253906 45.234375-45.234375v-9.496094h-9.492188c-24.980468 0-45.234375 20.253907-45.234375 45.234376zm0 0" fill="#b6e892"/><path d="m48.953125 7.5h30v96h-30zm0 0" fill="#ff3f62"/><path d="m61.601562 118.808594c0-8.453125 6.855469-15.308594 15.3125-15.308594h-30c-8.457031 0-15.3125 6.855469-15.3125 15.308594 0 8.457031 6.855469 15.3125 15.3125 15.3125h30c-8.457031-.003906-15.3125-6.855469-15.3125-15.3125zm0 0" fill="#ff3f62"/><path d="m91.226562 177.523438v-43.402344h-30v43.402344c-29.671874 0-53.726562 24.054687-53.726562 53.726562v273.25h30v-273.25c0-29.671875 24.054688-53.726562 53.726562-53.726562zm0 0" fill="#9bc9ff"/><path d="m7.5 265.464844h30v169.285156h-30zm0 0" fill="#ff3f62"/><path d="m261.054688 468.753906c0-19.742187 16.003906-35.746094 35.746093-35.746094h-30c-19.742187 0-35.746093 16.003907-35.746093 35.746094 0 19.742188 16.003906 35.746094 35.746093 35.746094h30c-19.742187 0-35.746093-16.003906-35.746093-35.746094zm0 0" fill="#ff7956"/><path d="m328.636719 422.535156-57.109375-57.105468c-13.960938-13.960938-13.960938-36.59375 0-50.554688 3.066406-3.066406 6.554687-5.460938 10.273437-7.179688-13.210937-6.105468-29.382812-3.710937-40.273437 7.179688-13.960938 13.960938-13.960938 36.59375 0 50.554688l57.109375 57.105468c10.890625 10.894532 27.0625 13.285156 40.273437 7.183594-3.71875-1.722656-7.207031-4.113281-10.273437-7.183594zm0 0" fill="#ff7956"/><path d="m74.078125 306.871094v-10.546875c-2.84375-.464844-5.757813-.71875-8.734375-.71875h-11.265625v11.265625c0 29.644531 24.03125 53.675781 53.675781 53.675781h11.265625v-.71875c-25.488281-4.171875-44.941406-26.285156-44.941406-52.957031zm0 0" fill="#95d6a6"/><path d="m139.019531 351.054688c0-21.363282 14.816407-39.253907 34.726563-43.992188v-1.242188h-9.492188c-24.980468 0-45.234375 20.253907-45.234375 45.234376v9.496093h9.492188c3.621093 0 7.136719-.4375 10.507812-1.242187zm0 0" fill="#95d6a6"/><path d="m46.914062 141.617188h144.730469c12.574219 0 22.808594-10.230469 22.808594-22.808594 0-10.695313-7.398437-19.695313-17.351563-22.148438v-96.660156h-155.648437v96.660156c-9.949219 2.453125-17.351563 11.453125-17.351563 22.148438 0 12.578125 10.234376 22.808594 22.8125 22.808594zm9.539063-126.617188h125.648437v81h-20.125v-18.5h-15v18.5h-20.175781v-18.5h-15v18.5h-20.171875v-18.5h-15v18.5h-20.175781zm-9.539063 96h144.730469c4.304688 0 7.808594 3.503906 7.808594 7.808594 0 4.308594-3.503906 7.8125-7.808594 7.8125h-144.730469c-4.308593 0-7.8125-3.503906-7.8125-7.8125 0-4.304688 3.503907-7.808594 7.8125-7.808594zm0 0"/><path d="m184.828125 170.480469v-16.363281h-15v30.90625h7.5c25.488281 0 46.226563 20.734374 46.226563 46.226562v265.75h-208.554688v-265.75c0-25.488281 20.738281-46.226562 46.226562-46.226562h42.011719v-15h-34.511719v-15.90625h-15v16.363281c-30.234374 3.707031-53.726562 29.546875-53.726562 60.769531v280.75h238.554688v-280.75c0-31.222656-23.492188-57.0625-53.726563-60.769531zm0 0"/><path d="m126.519531 412.921875v-44.871094h1.992188c29.078125 0 52.734375-23.65625 52.734375-52.734375v-16.992187h-16.992188c-18.414062 0-34.652344 9.484375-44.085937 23.824219-10.019531-20.15625-30.828125-34.039063-54.824219-34.039063h-18.765625v18.765625c0 33.730469 27.441406 61.175781 61.175781 61.175781h3.765625v44.875h15zm37.734375-99.601563h1.992188v1.996094c0 17.363282-11.792969 32.027344-27.789063 36.402344l13.230469-13.230469-10.605469-10.605469-13.230469 13.230469c4.375-16 19.035157-27.792969 36.402344-27.792969zm-102.675781-6.449218v-3.765625h3.765625c22.929688 0 42.007812 16.800781 45.578125 38.738281l-19.070313-19.070312-10.605468 10.609374 19.070312 19.066407c-21.9375-3.570313-38.738281-22.648438-38.738281-45.578125zm0 0"/><path d="m27.5 427.25h183.554688v15h-183.554688zm0 0"/><path d="m27.5 257.964844h183.554688v15h-183.554688zm0 0"/><path d="m303.9375 417.234375-47.578125-47.582031-10.605469 10.609375 47.578125 47.578125c8.429688 8.429687 19.503907 12.644531 30.578125 12.644531 11.074219 0 22.148438-4.214844 30.582032-12.644531 16.859374-16.859375 16.859374-44.296875 0-61.160156l-57.109376-57.109376c-13.082031-13.082031-33.027343-16.398437-49.628906-8.253906l6.605469 13.46875c10.839844-5.320312 23.867187-3.152344 32.414063 5.394532l57.109374 57.109374c11.015626 11.011719 11.015626 28.933594 0 39.945313-11.011718 11.011719-28.933593 11.011719-39.945312 0zm0 0"/><path d="m254.363281 443.386719c3.886719-1.910157 8.070313-2.878907 12.4375-2.878907h14.019531v-15h-14.019531c-6.679687 0-13.089843 1.484376-19.054687 4.414063zm0 0"/><path d="m366.65625 429.941406-6.628906 13.453125c9.738281 4.796875 15.785156 14.515625 15.785156 25.359375 0 15.574219-12.671875 28.246094-28.246094 28.246094h-80.765625c-4.367187 0-8.554687-.96875-12.4375-2.878906l-6.617187 13.464844c5.964844 2.929687 12.375 4.414062 19.054687 4.414062h80.765625c23.847656 0 43.246094-19.402344 43.246094-43.246094 0-16.601562-9.257812-31.472656-24.15625-38.8125zm0 0"/><g fill="#fff"><path d="m172.496094 40h-29.992188v-15h29.992188zm-39.992188 0h-15v-15h15zm-25 0h-15v-15h15zm0 0"/><path d="m213.554688 245.464844h-15v-14.214844c0-4.996094-1.777344-9.851562-5.003907-13.671875l11.457031-9.679687c5.511719 6.523437 8.546876 14.816406 8.546876 23.351562zm-25.65625-32.617188c-3.199219-1.847656-6.855469-2.824218-10.570313-2.824218v-15c6.347656 0 12.59375 1.671874 18.074219 4.835937zm-20.570313-2.824218h-15v-15h15zm0 0"/><path d="m311.007812 410.164062-21.753906-21.753906 10.609375-10.609375 21.753907 21.753907zm-28.824218-28.824218-10.605469-10.609375 10.605469-10.605469 10.605468 10.605469zm-17.675782-17.679688-10.609374-10.605468 10.609374-10.609376 10.605469 10.609376zm0 0"/><path d="m213.554688 409.75h-15v-69.285156h15zm0-79.285156h-15v-15h15zm0-25h-15v-15h15zm0 0"/><path d="m347.566406 487h-30.765625v-15h30.765625zm-40.765625 0h-15v-15h15zm-25 0h-15v-15h15zm0 0"/></g></svg>